<!DOCTYPE svg PUBLIC "-//W3C//DTD SVG 20010904//EN" "http://www.w3.org/TR/2001/REC-SVG-20010904/DTD/svg10.dtd">
<svg version="1.0" xmlns="http://www.w3.org/2000/svg" width="20px" height="20px" viewBox="0 0 200 200" preserveAspectRatio="xMidYMid meet">
<g id="layer101" fill="#ffc800" stroke="none">
 <path d="M64 185 c-4 -8 -4 -25 -1 -36 4 -15 2 -19 -9 -15 -9 3 -24 1 -35 -4 -21 -12 -26 -61 -9 -104 9 -25 12 -26 100 -26 l91 0 -3 53 c-3 47 -5 52 -29 55 -26 3 -59 46 -59 76 0 21 -39 21 -46 1z m66 -127 l0 -38 -44 0 c-50 0 -58 8 -62 57 -2 31 0 33 32 33 29 0 34 4 34 23 0 20 2 20 20 -8 11 -16 20 -47 20 -67z m50 -3 c0 -47 -25 -47 -26 0 0 23 4 35 13 35 8 0 13 -13 13 -35z"/>
 </g>

</svg>