<!DOCTYPE svg PUBLIC "-//W3C//DTD SVG 20010904//EN" "http://www.w3.org/TR/2001/REC-SVG-20010904/DTD/svg10.dtd">
<svg version="1.0" xmlns="http://www.w3.org/2000/svg" width="20px" height="20px" viewBox="0 0 200 200" preserveAspectRatio="xMidYMid meet">
<g id="layer101" fill="#ffc800" stroke="none">
 <path d="M2 148 c3 -48 5 -53 29 -56 26 -3 59 -46 59 -77 0 -11 7 -15 23 -13 18 2 22 9 22 36 0 23 4 31 13 27 7 -3 22 0 33 5 21 12 26 61 9 104 -9 25 -12 26 -100 26 l-91 0 3 -52z m44 -3 c0 -23 -4 -35 -13 -35 -8 0 -13 13 -13 35 0 47 25 47 26 0z m120 23 c4 -6 8 -26 10 -45 2 -31 0 -33 -32 -33 -29 0 -34 -4 -34 -22 0 -21 -2 -21 -20 7 -11 17 -20 47 -20 68 l0 37 44 0 c25 0 48 -5 52 -12z"/>
 </g>

</svg>