<!DOCTYPE svg PUBLIC "-//W3C//DTD SVG 20010904//EN" "http://www.w3.org/TR/2001/REC-SVG-20010904/DTD/svg10.dtd">
<svg version="1.0" xmlns="http://www.w3.org/2000/svg" width="55px" height="49px" viewBox="0 0 550 490" preserveAspectRatio="xMidYMid meet">
<g id="layer101" fill="#ffc800" stroke="none">
 <path d="M152 451 c-37 -38 -40 -39 -95 -36 -44 3 -57 0 -57 -11 0 -9 11 -14 30 -14 29 0 30 -2 30 -45 0 -32 -4 -45 -14 -45 -10 0 -16 13 -18 37 -2 20 -9 38 -15 41 -10 3 -13 -12 -13 -54 l0 -57 55 6 c30 3 55 3 56 -1 0 -4 2 -23 4 -42 1 -19 3 -37 5 -40 1 -3 2 -9 1 -13 -1 -5 19 -29 44 -53 36 -34 43 -45 31 -50 -21 -8 -20 -37 2 -57 14 -13 38 -17 90 -17 71 0 73 1 111 41 36 36 43 40 75 33 29 -5 36 -3 36 10 0 9 -4 16 -10 16 -5 0 -10 20 -10 45 0 33 4 45 15 45 11 0 15 -11 15 -40 0 -29 4 -40 15 -40 12 0 15 13 15 56 l0 57 -55 -6 -55 -6 -1 32 c-1 18 -1 38 0 45 1 6 -3 12 -8 12 -6 0 -8 6 -5 13 5 13 -48 67 -66 67 -5 0 -10 5 -10 11 0 6 -8 8 -17 5 -15 -5 -15 -4 1 9 11 8 23 15 28 15 15 0 8 37 -10 53 -14 13 -38 17 -90 17 -71 0 -73 -1 -110 -39z m151 -8 c-48 -6 -37 -51 17 -68 14 -4 39 -23 56 -41 24 -27 31 -44 33 -83 2 -43 -1 -49 -21 -54 -13 -4 -43 -27 -68 -52 -37 -37 -43 -48 -34 -63 18 -28 50 -26 86 7 26 24 31 32 21 42 -10 10 -18 8 -41 -12 -15 -13 -11 -7 10 14 27 26 46 37 68 37 25 0 30 -4 30 -24 0 -16 -7 -27 -20 -31 -12 -4 -36 -22 -55 -41 -33 -32 -37 -34 -102 -32 -37 0 -53 3 -35 5 17 2 32 10 32 16 0 14 -35 47 -50 47 -6 0 -10 5 -10 11 0 5 -4 7 -10 4 -5 -3 -10 -1 -10 4 0 6 -7 11 -15 11 -8 0 -17 11 -21 25 -3 14 -10 25 -16 25 -5 0 -7 4 -4 9 4 5 2 20 -2 33 -12 33 -4 55 21 62 12 3 42 26 67 51 37 37 43 48 34 63 -18 28 -50 26 -86 -7 -26 -24 -31 -32 -21 -42 10 -10 18 -8 41 12 15 13 11 7 -10 -13 -27 -27 -46 -38 -68 -38 -25 0 -30 4 -30 24 0 16 7 27 20 31 12 4 36 22 55 41 33 32 37 34 102 32 37 0 53 -3 36 -5z"/>
 <path d="M223 294 c-45 -38 -52 -58 -29 -89 11 -15 28 -20 72 -21 109 -4 137 46 62 110 -23 20 -46 36 -52 36 -6 0 -30 -16 -53 -36z m84 -26 c13 -12 23 -27 23 -35 0 -16 -22 -17 -38 -1 -9 9 -15 9 -24 0 -17 -17 -48 -15 -48 2 0 13 45 56 58 56 3 0 16 -10 29 -22z"/>
 <path d="M522 88 c6 -18 28 -21 28 -4 0 9 -7 16 -16 16 -9 0 -14 -5 -12 -12z"/>
 </g>

</svg>