<!DOCTYPE svg PUBLIC "-//W3C//DTD SVG 20010904//EN" "http://www.w3.org/TR/2001/REC-SVG-20010904/DTD/svg10.dtd">
<svg version="1.0" xmlns="http://www.w3.org/2000/svg" width="51px" height="51px" viewBox="0 0 510 510" preserveAspectRatio="xMidYMid meet">
<g id="layer101" fill="#ffc800" stroke="none">
 <path d="M180 500 c0 -5 7 -10 15 -10 10 0 15 -11 15 -35 l0 -34 -87 -3 -88 -3 -3 -127 c-2 -107 -5 -128 -18 -128 -11 0 -14 -9 -12 -32 l3 -33 119 -3 c119 -3 150 -11 139 -37 -7 -20 46 -32 58 -14 14 22 11 42 -6 36 -8 -4 -17 -2 -20 3 -4 6 5 10 19 10 24 0 26 -3 26 -45 0 -45 0 -45 35 -45 35 0 35 0 35 44 l0 45 48 3 c45 3 47 4 50 36 2 23 -1 32 -12 32 -13 0 -16 21 -18 128 l-3 127 -87 3 -88 3 0 34 c0 24 5 35 15 35 8 0 15 5 15 10 0 6 -32 10 -75 10 -43 0 -75 -4 -75 -10z m90 -45 c0 -24 -5 -35 -15 -35 -10 0 -15 11 -15 35 0 24 5 35 15 35 10 0 15 -11 15 -35z m190 -180 l0 -115 -25 0 c-25 0 -25 1 -25 85 0 71 3 85 16 85 9 0 14 6 12 13 -4 9 -48 12 -178 12 -130 0 -174 -3 -177 -12 -3 -7 2 -13 11 -13 13 0 16 -11 16 -50 l0 -50 34 0 c35 0 35 0 39 53 3 42 4 37 5 -25 l2 -78 35 0 c19 0 35 -4 35 -10 0 -20 -51 -9 -113 25 -58 32 -77 35 -77 13 0 -4 16 -14 35 -22 19 -8 35 -17 35 -20 0 -4 -20 -6 -45 -6 l-45 0 0 115 0 115 205 0 205 0 0 -115z m-308 20 c2 -19 0 -35 -4 -35 -4 0 -8 16 -8 35 0 19 2 35 4 35 2 0 6 -16 8 -35z m75 -62 c-2 -21 -4 -6 -4 32 0 39 2 55 4 38 2 -18 2 -50 0 -70z m83 62 c0 -47 18 -45 23 3 2 20 4 -3 4 -53 -1 -50 -2 -69 -4 -42 -6 65 -23 59 -23 -8 0 -30 -4 -55 -10 -55 -6 0 -10 38 -10 95 0 57 4 95 10 95 6 0 10 -16 10 -35z m70 -120 c0 -85 -3 -155 -7 -155 -5 0 -7 70 -5 155 2 85 5 155 7 155 3 0 5 -70 5 -155z m-212 -52 c-26 -2 -71 -2 -100 0 -29 2 -8 3 47 3 55 0 79 -1 53 -3z m305 0 c-13 -2 -33 -2 -45 0 -13 2 -3 4 22 4 25 0 35 -2 23 -4z"/>
 </g>

</svg>