<!DOCTYPE svg PUBLIC "-//W3C//DTD SVG 20010904//EN" "http://www.w3.org/TR/2001/REC-SVG-20010904/DTD/svg10.dtd">
<svg version="1.0" xmlns="http://www.w3.org/2000/svg" width="51px" height="51px" viewBox="0 0 510 510" preserveAspectRatio="xMidYMid meet">
<g id="layer101" fill="#ffc800" stroke="none">
 <path d="M0 470 c0 -38 3 -41 50 -65 27 -14 56 -25 65 -25 9 0 19 -10 24 -22 10 -28 -17 -87 -40 -88 -8 0 -20 -5 -27 -12 -17 -17 -15 -93 3 -108 8 -7 15 -19 15 -27 0 -31 33 -83 65 -103 24 -15 50 -20 100 -20 50 0 76 5 100 20 32 20 65 72 65 103 0 8 7 20 15 27 9 8 15 29 15 55 0 37 -6 49 -43 88 -35 36 -42 48 -36 66 5 11 16 21 25 21 9 0 38 12 65 27 46 24 49 29 49 65 l0 38 -255 0 -255 0 0 -40z m200 1 c0 -11 -11 -32 -24 -48 l-24 -28 -58 24 c-60 25 -74 36 -74 59 0 9 25 12 90 12 82 0 90 -2 90 -19z m75 9 c-3 -5 -12 -10 -20 -10 -8 0 -17 5 -20 10 -4 6 5 10 20 10 15 0 24 -4 20 -10z m215 -2 c0 -23 -14 -34 -74 -59 l-58 -24 -24 28 c-13 16 -24 37 -24 48 0 17 8 19 90 19 65 0 90 -3 90 -12z m-260 -80 c0 -5 -5 -8 -12 -8 -6 0 -20 -8 -31 -17 -17 -15 -16 -12 4 19 21 33 38 35 39 6z m90 -8 c20 -30 21 -32 4 -17 -11 9 -26 17 -32 17 -7 0 -12 2 -12 4 0 8 12 37 14 34 2 -2 13 -19 26 -38z m-6 -46 c19 -14 18 -14 -21 -8 -36 5 -43 4 -43 -10 0 -11 9 -16 29 -16 63 0 79 -14 86 -75 10 -77 -7 -130 -48 -155 -86 -53 -177 7 -177 117 0 131 90 207 174 147z m-204 -139 c0 -19 -4 -35 -10 -35 -5 0 -10 16 -10 35 0 19 5 35 10 35 6 0 10 -16 10 -35z m310 0 c0 -19 -4 -35 -10 -35 -5 0 -10 16 -10 35 0 19 5 35 10 35 6 0 10 -16 10 -35z m-213 -165 c9 0 13 -3 10 -6 -11 -11 -67 17 -79 40 -9 17 -6 16 21 -7 18 -15 40 -27 48 -27z m166 35 c-6 -17 -54 -45 -75 -45 -7 1 1 7 17 14 17 7 36 20 44 29 17 21 22 22 14 2z"/>
 </g>

</svg>