<!DOCTYPE svg PUBLIC "-//W3C//DTD SVG 20010904//EN" "http://www.w3.org/TR/2001/REC-SVG-20010904/DTD/svg10.dtd">
<svg version="1.0" xmlns="http://www.w3.org/2000/svg" width="47px" height="51px" viewBox="0 0 470 510" preserveAspectRatio="xMidYMid meet">
<g id="layer101" fill="#ffc800" stroke="none">
 <path d="M165 493 c-44 -23 -103 -82 -133 -133 -24 -41 -27 -57 -31 -162 l-3 -117 28 -6 c56 -13 100 -28 146 -51 54 -27 76 -30 103 -10 21 14 122 51 169 61 l28 6 -4 117 c-4 131 -13 155 -81 229 -72 78 -153 103 -222 66z m120 -27 c52 -22 117 -94 138 -152 13 -36 17 -73 15 -129 l-3 -79 -45 -11 c-25 -7 -71 -25 -103 -40 -46 -22 -60 -25 -72 -15 -8 7 -52 25 -97 41 l-83 28 -3 77 c-4 99 18 164 75 221 42 42 91 71 126 72 10 1 33 -5 52 -13z"/>
 <path d="M220 455 c0 -8 7 -15 15 -15 8 0 15 7 15 15 0 8 -7 15 -15 15 -8 0 -15 -7 -15 -15z"/>
 <path d="M266 453 c-11 -11 -6 -33 8 -33 22 0 94 -78 106 -114 6 -19 14 -69 18 -112 4 -44 12 -79 17 -79 17 0 17 122 1 179 -8 28 -31 69 -50 91 -36 43 -89 79 -100 68z"/>
 <path d="M184 389 c-3 -6 -17 -14 -30 -19 -13 -5 -24 -16 -24 -24 0 -8 -6 -19 -14 -23 -16 -10 -30 -89 -16 -98 5 -3 10 -14 10 -23 0 -24 54 -72 93 -83 20 -5 46 -5 65 0 39 12 92 59 92 83 0 9 5 20 10 23 14 9 0 88 -16 98 -8 4 -14 15 -14 23 0 8 -11 19 -24 24 -13 5 -27 13 -30 19 -3 5 -26 9 -51 9 -25 0 -48 -4 -51 -9z m98 -41 c42 -24 54 -48 52 -100 -2 -39 -7 -53 -25 -66 -50 -36 -104 -36 -147 -1 -30 24 -37 106 -12 135 37 43 90 56 132 32z"/>
 <path d="M237 313 c-11 -11 -17 -13 -17 -5 0 7 -7 12 -16 12 -16 0 -16 -11 1 -52 5 -13 3 -18 -8 -18 -25 0 -40 -26 -27 -49 12 -24 48 -28 56 -7 3 8 13 12 25 9 23 -6 25 14 4 43 -13 20 -13 21 9 17 31 -6 51 19 36 46 -13 25 -40 27 -63 4z"/>
 <path d="M44 257 c-3 -8 -4 -42 -2 -76 l3 -62 70 -24 c81 -28 95 -30 95 -12 0 12 -60 40 -113 53 -28 6 -29 8 -25 67 2 42 -1 61 -9 64 -7 3 -15 -2 -19 -10z"/>
 <path d="M220 65 c0 -8 7 -15 15 -15 8 0 15 7 15 15 0 8 -7 15 -15 15 -8 0 -15 -7 -15 -15z"/>
 </g>

</svg>